<svg xmlns="http://www.w3.org/2000/svg" width="100" height="100" viewBox="0 0 100 100">
  <g id="Group_42316" data-name="Group 42316" transform="translate(-802 -8364)">
    <rect id="Rectangle_17371" data-name="Rectangle 17371" width="100" height="100" rx="50" transform="translate(802 8364)" fill="#fff5e0"/>
    <g id="Group_42312" data-name="Group 42312" transform="translate(-5954.044 5748.755)">
      <path id="Path_99820" data-name="Path 99820" d="M7055.713,2691.183a2.456,2.456,0,0,1-1.41,2.7.319.319,0,0,0-.2.346c.008.246.013.495,0,.74a.8.8,0,0,1-.834.783.753.753,0,0,1-.792-.811,1.135,1.135,0,0,0-.784-1.372,1.894,1.894,0,0,1-.728-.656.809.809,0,0,1,.062-1.147.8.8,0,0,1,1.146.038,2.712,2.712,0,0,0,.625.528.861.861,0,0,0,1-.061.762.762,0,0,0,.26-.886.847.847,0,0,0-.816-.579,2.463,2.463,0,0,1-1-4.7.345.345,0,0,0,.214-.379,6.353,6.353,0,0,1,0-.741.827.827,0,0,1,.815-.77.763.763,0,0,1,.806.763,1.212,1.212,0,0,0,.838,1.465,1.286,1.286,0,0,1,.435.371.789.789,0,0,1,0,1.084.821.821,0,0,1-1.083.131,6.8,6.8,0,0,0-.569-.4.794.794,0,0,0-.957.094.758.758,0,0,0-.243.888.813.813,0,0,0,.784.555A2.478,2.478,0,0,1,7055.713,2691.183Z" transform="translate(-243.773 -36.669)" fill="#ffab00" stroke="#feab00" stroke-width="0.5"/>
      <path id="Path_99821" data-name="Path 99821" d="M6984.422,2644.491c-.391-.088-.785-.165-1.178-.246h-1.977c-.162.158-.381.115-.571.149a9.08,9.08,0,1,0,3.726.1Zm-2.1,16.25a7.423,7.423,0,1,1,7.436-7.376A7.415,7.415,0,0,1,6982.324,2660.741Z" transform="translate(-172.662 0)" fill="#ffab00" stroke="#feab00" stroke-width="0.5"/>
      <path id="Path_99822" data-name="Path 99822" d="M6785.044,3030.292a.3.3,0,0,0,.074,0,.277.277,0,0,1,0,.423l-.035,0-.035-.008Z" transform="translate(0 -354.166)" fill="#ffab00" stroke="#feab00" stroke-width="0.5"/>
      <path id="Path_99823" data-name="Path 99823" d="M7005.3,2975.244a.819.819,0,0,1-.817.8.851.851,0,0,1-.827-.849.829.829,0,0,1,.87-.795A.8.8,0,0,1,7005.3,2975.244Z" transform="translate(-200.557 -302.898)" fill="#ffab00" stroke="#feab00" stroke-width="0.5"/>
      <path id="Path_99824" data-name="Path 99824" d="M6827.718,2858.245a3.3,3.3,0,0,0-5.253-.743c-1.594,1.628-3.178,3.269-4.771,4.9-.1.1-.169.357-.4.1a3.458,3.458,0,0,0-2.74-1.078c-2.829.015-5.657,0-8.485.006a1.854,1.854,0,0,1-.683-.109c-4.346-1.68-10.315-.457-13.02,4.342a.318.318,0,0,1-.355.19,2.531,2.531,0,0,0-2.1.832c-1.207,1.221-2.422,2.433-3.632,3.648a1.223,1.223,0,0,0-.377.529c0,.142,0,.282,0,.423a1.063,1.063,0,0,0,.333.508q4.512,4.545,9.023,9.09a.847.847,0,0,0,1.389.023q1.926-1.889,3.842-3.789a2.484,2.484,0,0,0,.7-2.375c-.023-.122-.068-.224.041-.339a3.714,3.714,0,0,1,2.9-1.437c3.486.065,6.974.038,10.462.017a7.155,7.155,0,0,0,5.783-2.718c.9-1.107,1.83-2.19,2.746-3.286q2.087-2.5,4.171-4.992A3.63,3.63,0,0,0,6827.718,2858.245Zm-28.407,17.717c-1.047,1.03-2.1,2.058-3.134,3.1-.167.167-.259.157-.421-.007q-3.851-3.892-7.716-7.77c-.152-.153-.15-.233,0-.384,1.043-1.033,2.073-2.08,3.116-3.113a.805.805,0,0,1,1.264.009q3.441,3.43,6.875,6.867a.819.819,0,0,1,.3.629A.836.836,0,0,1,6799.311,2875.962Zm26.72-15.036q-2.328,2.8-4.674,5.591c-.749.895-1.513,1.776-2.242,2.686a5.6,5.6,0,0,1-4.563,2.135c-1.812.016-3.625,0-5.437,0-1.66,0-3.323.039-4.983-.01a4.5,4.5,0,0,0-3.665,1.524c-.238.262-.381.284-.653.007q-2.919-2.963-5.88-5.885a.411.411,0,0,1-.07-.616,8.213,8.213,0,0,1,6-3.969,9.262,9.262,0,0,1,5.241.591,1.675,1.675,0,0,0,.687.094q4.428,0,8.855,0a1.672,1.672,0,0,1,1.853,1.387,1.631,1.631,0,0,1-1.275,1.871,3.458,3.458,0,0,1-.615.045q-3.07,0-6.138,0a2.94,2.94,0,0,0-.492.028.81.81,0,0,0-.064,1.576,1.784,1.784,0,0,0,.448.049c2.114,0,4.229.011,6.343,0a3.3,3.3,0,0,0,3.458-3.545.528.528,0,0,1,.2-.417l5.2-5.346a1.651,1.651,0,1,1,2.464,2.2Z" transform="translate(-0.781 -194.743)" fill="#ffab00" stroke="#feab00" stroke-width="0.5"/>
      <path id="Path_99825" data-name="Path 99825" d="M7054.3,2693.885a.319.319,0,0,0-.2.346c.008.246.013.495,0,.74a.8.8,0,0,1-.834.783.753.753,0,0,1-.792-.811,1.135,1.135,0,0,0-.784-1.372,1.894,1.894,0,0,1-.728-.656.809.809,0,0,1,.062-1.147.8.8,0,0,1,1.146.038,2.712,2.712,0,0,0,.625.528.861.861,0,0,0,1-.061.762.762,0,0,0,.26-.886.847.847,0,0,0-.816-.579,2.463,2.463,0,0,1-1-4.7.345.345,0,0,0,.214-.379,6.353,6.353,0,0,1,0-.741.827.827,0,0,1,.815-.77.763.763,0,0,1,.806.763,1.212,1.212,0,0,0,.838,1.465,1.286,1.286,0,0,1,.435.371.789.789,0,0,1,0,1.084.821.821,0,0,1-1.083.131,6.8,6.8,0,0,0-.569-.4.794.794,0,0,0-.957.094.758.758,0,0,0-.243.888.813.813,0,0,0,.784.555,2.471,2.471,0,0,1,1.008,4.722Z" transform="translate(-243.773 -36.669)" fill="#ffab00" stroke="#feab00" stroke-width="0.5"/>
      <path id="Path_99826" data-name="Path 99826" d="M7005.3,2975.244a.819.819,0,0,1-.817.8.851.851,0,0,1-.827-.849.829.829,0,0,1,.87-.795A.8.8,0,0,1,7005.3,2975.244Z" transform="translate(-200.557 -302.898)" fill="#ffab00" stroke="#feab00" stroke-width="0.5"/>
      <path id="Path_99827" data-name="Path 99827" d="M7054.3,2693.885a.319.319,0,0,0-.2.346c.008.246.013.495,0,.74a.8.8,0,0,1-.834.783.753.753,0,0,1-.792-.811,1.135,1.135,0,0,0-.784-1.372,1.894,1.894,0,0,1-.728-.656.809.809,0,0,1,.062-1.147.8.8,0,0,1,1.146.038,2.712,2.712,0,0,0,.625.528.861.861,0,0,0,1-.061.762.762,0,0,0,.26-.886.847.847,0,0,0-.816-.579,2.463,2.463,0,0,1-1-4.7.345.345,0,0,0,.214-.379,6.353,6.353,0,0,1,0-.741.827.827,0,0,1,.815-.77.763.763,0,0,1,.806.763,1.212,1.212,0,0,0,.838,1.465,1.286,1.286,0,0,1,.435.371.789.789,0,0,1,0,1.084.821.821,0,0,1-1.083.131,6.8,6.8,0,0,0-.569-.4.794.794,0,0,0-.957.094.758.758,0,0,0-.243.888.813.813,0,0,0,.784.555,2.471,2.471,0,0,1,1.008,4.722Z" transform="translate(-243.773 -36.669)" fill="#ffab00" stroke="#feab00" stroke-width="0.5"/>
      <path id="Path_99828" data-name="Path 99828" d="M7005.3,2975.244a.819.819,0,0,1-.817.8.851.851,0,0,1-.827-.849.829.829,0,0,1,.87-.795A.8.8,0,0,1,7005.3,2975.244Z" transform="translate(-200.557 -302.898)" fill="#ffab00" stroke="#feab00" stroke-width="0.5"/>
    </g>
  </g>
</svg>
