<svg xmlns="http://www.w3.org/2000/svg" width="25.028" height="25.027" viewBox="0 0 25.028 25.027">
  <g id="Direction" transform="translate(0)">
    <path id="Path_99786" data-name="Path 99786" d="M5089.274,1206.787h-.488a1.313,1.313,0,0,1-.807-.451q-5.51-5.517-11.028-11.027a1.37,1.37,0,0,1-.449-1.062,1.255,1.255,0,0,1,.354-.88l.1-.1q5.522-5.522,11.041-11.049a1.432,1.432,0,0,1,1.352-.425,1.236,1.236,0,0,1,.662.388l2.9,2.9q4.073,4.073,8.147,8.144a1.369,1.369,0,0,1,.468.824v.488a1.369,1.369,0,0,1-.468.823q-5.487,5.478-10.965,10.965A1.371,1.371,0,0,1,5089.274,1206.787Z" transform="translate(-5076.501 -1181.76)" fill="#0fa76f"/>
    <path id="Path_99787" data-name="Path 99787" d="M5165.659,1265.885c0-1,0-1.942,0-2.883,0-.187-.042-.241-.235-.239q-2.27.013-4.54,0c-.178,0-.229.037-.228.223.011,1.107,0,2.213.009,3.32,0,.167-.037.222-.213.219-.691-.01-1.383-.009-2.075,0-.162,0-.224-.031-.223-.21.006-1.57,0-3.141.006-4.711a1.237,1.237,0,0,1,1.345-1.332c1.96,0,3.921-.006,5.883.005.232,0,.275-.069.271-.282-.012-.854,0-1.708,0-2.563v-.241c.1.014.137.086.185.134q2.013,2.009,4.027,4.016c.147.146.136.214,0,.354q-2.011,1.993-4.008,4C5165.808,1265.746,5165.754,1265.795,5165.659,1265.885Z" transform="translate(-5150.636 -1250.242)" fill="#fefefe"/>
  </g>
</svg>
