<svg xmlns="http://www.w3.org/2000/svg" width="53" height="51" viewBox="0 0 53 51">
  <g id="Education_" data-name="Education " transform="translate(-152 -1252)">
    <rect id="Rectangle_14743" data-name="Rectangle 14743" width="53" height="51" rx="6" transform="translate(152 1252)" fill="#edf9ff"/>
    <path id="Path_99844" data-name="Path 99844" d="M8517.349,2793.859q-6.65-2.348-13.3-4.7a1.326,1.326,0,0,0-.936,0q-6.57,2.327-13.146,4.636a1.452,1.452,0,0,0-.918.677v.511a1.448,1.448,0,0,0,.918.678c1.6.557,3.2,1.137,4.8,1.694a.331.331,0,0,1,.271.375c-.011,1.7,0,3.405-.011,5.108a1.687,1.687,0,0,0,.611,1.344,3.878,3.878,0,0,0,.646.456,10.227,10.227,0,0,0,2.841,1.016,20.354,20.354,0,0,0,8.747.038,9.555,9.555,0,0,0,3.27-1.218,1.973,1.973,0,0,0,1-1.836c-.041-1.646-.013-3.292-.01-4.938,0-.1-.055-.225.11-.282.7-.243,1.4-.5,2.123-.753v.313c0,2.364,0,4.73,0,7.095a.373.373,0,0,1-.249.4,2.553,2.553,0,0,0,.032,4.625.306.306,0,0,1,.216.328c-.008.983,0,1.967-.006,2.951a.862.862,0,0,0,.364.758.8.8,0,0,0,.859.069.811.811,0,0,0,.478-.775q.012-1.518,0-3.036a.252.252,0,0,1,.169-.273,2.56,2.56,0,0,0,0-4.691.233.233,0,0,1-.165-.249q.007-3.973,0-7.946a.211.211,0,0,1,.176-.238c.421-.138.835-.294,1.253-.443a.868.868,0,0,0,.569-.549C8518.231,2794.5,8517.97,2794.078,8517.349,2793.859Zm-7.172,9.218a8.057,8.057,0,0,1-2.458.906,18.334,18.334,0,0,1-9.217-.253,6.089,6.089,0,0,1-1.577-.686.383.383,0,0,1-.2-.371c.01-.728,0-1.456,0-2.184,0-.709.008-1.419,0-2.128,0-.235.034-.289.277-.2,2.047.738,4.1,1.459,6.148,2.194a1.191,1.191,0,0,0,.852,0q3.05-1.091,6.1-2.172c.317-.114.318-.114.318.215,0,1.409,0,2.819.008,4.228A.466.466,0,0,1,8510.177,2803.077Zm3.564-7.992q-4.954,1.762-9.909,3.524a.634.634,0,0,1-.46.016q-5.31-1.9-10.625-3.785c-.08-.028-.156-.061-.277-.108,1-.354,1.954-.692,2.909-1.03q3.989-1.406,7.973-2.811a.565.565,0,0,1,.407-.023q5.4,1.912,10.795,3.816c.025.009.05.023.123.056C8514.341,2794.864,8514.043,2794.978,8513.741,2795.084Zm2.327,11.708a.855.855,0,1,1-1.71-.025.855.855,0,0,1,1.71.025Z" transform="translate(-8325.046 -1520.875)" fill="#0483bc"/>
  </g>
</svg>
