<svg xmlns="http://www.w3.org/2000/svg" width="67" height="65" viewBox="0 0 67 65">
  <g id="enter" transform="translate(-28 -30)">
    <g id="Group_42207" data-name="Group 42207" transform="translate(-123.988 -1221.725)">
      <rect id="Rectangle_14743" data-name="Rectangle 14743" width="67" height="65" rx="6" transform="translate(151.988 1251.725)" fill="rgba(3,169,244,0.07)"/>
    </g>
    <g id="icon" transform="translate(40 40.99)">
      <path id="Path_99777" data-name="Path 99777" d="M37.114,12.233a2.776,2.776,0,0,0-1.323-1.128L8.839.216A2.787,2.787,0,0,0,5,2.819V16.268a2.823,2.823,0,0,0,1.746,2.6l6.985,2.82,23.383,9.457a2.627,2.627,0,0,0,.423-1.475V13.708a2.779,2.779,0,0,0-.423-1.486Z" transform="translate(0 0)" fill="#0fa76f"/>
      <path id="Path_99778" data-name="Path 99778" d="M37.135,11.28,13.742,20.737l-7,2.82A2.8,2.8,0,0,0,5,26.16V39.63a2.8,2.8,0,0,0,3.839,2.592L35.8,31.323a2.771,2.771,0,0,0,1.312-1.128,2.652,2.652,0,0,0,.423-1.475V12.755a2.819,2.819,0,0,0-.4-1.475Z" transform="translate(0 0.953)" fill="#96f"/>
      <path id="Path_99779" data-name="Path 99779" d="M36.443,11.28l.108.184a2.932,2.932,0,0,1,.3,1.291V28.72a2.743,2.743,0,0,1-.423,1.475L13.06,20.737Z" transform="translate(0.682 0.953)" fill="#fff"/>
    </g>
  </g>
</svg>
