<svg xmlns="http://www.w3.org/2000/svg" width="53" height="51" viewBox="0 0 53 51">
  <g id="Entrepreneurship" transform="translate(-152 -1839)">
    <rect id="Rectangle_15005" data-name="Rectangle 15005" width="53" height="51" rx="6" transform="translate(152 1839)" fill="#0fa76f" opacity="0.09"/>
    <g id="launch" transform="translate(79 1851)">
      <path id="Path_94131" data-name="Path 94131" d="M99.409,26.093a.764.764,0,0,0,.764-.764V23.035H102a5.709,5.709,0,0,0,5.057,3.058.764.764,0,0,0,.764-.764V22.854a8.817,8.817,0,0,0-2.636-6.283c.939-2.854,1.107-3.671,1.107-5.246a10.588,10.588,0,0,0-1.654-5.9,24.624,24.624,0,0,0-3.751-4.278c-.3-.3-.62-.608-.934-.922a.764.764,0,0,0-1.081,0c-.315.315-.628.623-.931.92a25.036,25.036,0,0,0-3.792,4.326,10.542,10.542,0,0,0-1.617,5.855c0,1.576.19,2.461,1.106,5.246A8.815,8.815,0,0,0,91,22.853v2.476a.764.764,0,0,0,.764.764,5.709,5.709,0,0,0,5.057-3.058h1.823v2.293A.764.764,0,0,0,99.409,26.093Zm6.88-3.239V24.5a4.211,4.211,0,0,1-3-2.283c.386-1.158,1.237-3.685,1.338-3.985A7.357,7.357,0,0,1,106.289,22.854ZM99.01,2.234l.4-.393.4.4A23.761,23.761,0,0,1,103.3,6.167H95.514a24.416,24.416,0,0,1,3.5-3.932ZM92.529,24.5V22.853a7.354,7.354,0,0,1,1.658-4.625c.1.284.944,2.8,1.338,3.985A4.359,4.359,0,0,1,92.529,24.5ZM96.9,21.507c-.363-1.087-.679-2.026-.963-2.867-1.623-4.818-1.881-5.579-1.881-7.314a9.475,9.475,0,0,1,.656-3.63h9.381a9.453,9.453,0,0,1,.666,3.63c0,1.932-.55,3.359-1.9,7.365-.279.828-.589,1.751-.945,2.816h-1.743V19.162a.764.764,0,0,0-1.529,0v2.344Z" transform="translate(0 0)" fill="#0fa76f"/>
    </g>
  </g>
</svg>
