<svg xmlns="http://www.w3.org/2000/svg" width="100" height="100" viewBox="0 0 100 100">
  <g id="Group_42315" data-name="Group 42315" transform="translate(-389 -8364)">
    <rect id="Rectangle_17371" data-name="Rectangle 17371" width="100" height="100" rx="50" transform="translate(389 8364)" fill="#dbefff"/>
    <g id="Group_42214" data-name="Group 42214" transform="translate(-307.702 7919.771)">
      <g id="Group_42313" data-name="Group 42313" transform="translate(-5009.782 -2206.633)">
        <path id="Path_99829" data-name="Path 99829" d="M5736.483,2754.685a3.338,3.338,0,0,1,.75-1.089q4.448-4.7,8.882-9.409a1.6,1.6,0,0,1,1.734-.555,1.5,1.5,0,0,1,.75,2.317,8.124,8.124,0,0,1-.686.764q-3.787,4.017-7.583,8.025c-.2.212-.2.314,0,.526q4.02,4.232,8.019,8.483a1.534,1.534,0,0,1,.229,2.105,1.485,1.485,0,0,1-2.169.229c-.374-.331-.708-.709-1.051-1.074q-4.063-4.3-8.125-8.6a3.34,3.34,0,0,1-.75-1.089Z" transform="translate(0.001 -54.037)" fill="#0483bc" stroke="#0483bd" stroke-width="0.5"/>
        <path id="Path_99830" data-name="Path 99830" d="M5944.866,2715.33c.157-1.036.337-2.235.521-3.433q.692-4.531,1.388-9.063.731-4.786,1.46-9.571.535-3.517,1.077-7.032a1.519,1.519,0,0,1,2.955-.323,1.786,1.786,0,0,1,.04.86q-.725,4.767-1.461,9.532t-1.455,9.532c-.5,3.308-1,6.616-1.517,9.923a1.5,1.5,0,0,1-1.654,1.3A1.542,1.542,0,0,1,5944.866,2715.33Z" transform="translate(-191.846 0)" fill="#0483bc" stroke="#0483bd" stroke-width="0.5"/>
        <path id="Path_99831" data-name="Path 99831" d="M6103.273,2755a1.742,1.742,0,0,1-.567,1.218q-2.966,3.132-5.923,6.272c-1.069,1.132-2.134,2.267-3.207,3.394a1.527,1.527,0,0,1-2.219.169,1.506,1.506,0,0,1-.069-2.163c.446-.5.92-.982,1.381-1.471q3.381-3.583,6.769-7.161c.182-.191.2-.292.008-.5q-4-4.219-7.993-8.453a1.638,1.638,0,0,1-.545-1.563,1.511,1.511,0,0,1,2.4-.867,2.735,2.735,0,0,1,.315.3q4.525,4.79,9.048,9.58A1.791,1.791,0,0,1,6103.273,2755Z" transform="translate(-326.259 -54.043)" fill="#0483bc" stroke="#0483bd" stroke-width="0.5"/>
      </g>
    </g>
  </g>
</svg>
