<svg xmlns="http://www.w3.org/2000/svg" width="53" height="51" viewBox="0 0 53 51">
  <g id="Jobs_" data-name="Jobs " transform="translate(-152 -1664)">
    <rect id="Rectangle_14745" data-name="Rectangle 14745" width="53" height="51" rx="6" transform="translate(152 1664)" fill="#fff4f3"/>
    <path id="Path_99846" data-name="Path 99846" d="M8998.094,2920.576a1.54,1.54,0,0,0-.025-.329,1.139,1.139,0,0,0-1.218-.918q-2.275,0-4.554,0c-.177,0-.221-.05-.215-.22.011-.4.007-.792,0-1.188a1.828,1.828,0,0,0-1.826-1.954c-2.288-.034-4.575-.014-6.863-.008a1.852,1.852,0,0,0-1.81,1.792c-.01.455-.017.91-.008,1.364.006.182-.058.214-.223.213-1.5-.006-3.006,0-4.508,0a1.35,1.35,0,0,0-.8.2,1.4,1.4,0,0,0-.485.7v8.8a1.231,1.231,0,0,0,.584.755.261.261,0,0,1,.169.283q-.009,2.441,0,4.883a1.142,1.142,0,0,0,1.264,1.265q9.252,0,18.5,0a1.681,1.681,0,0,0,.413-.038,1.126,1.126,0,0,0,.851-1.183q0-2.465,0-4.928c0-.1-.025-.188.107-.253a1.128,1.128,0,0,0,.644-1.108Q8998.093,2924.646,8998.094,2920.576Zm-15.767-2.676a1.118,1.118,0,0,1,1.2-1.193c1.1-.005,2.2,0,3.3,0s2.171,0,3.254,0a1.132,1.132,0,0,1,1.254,1.248c0,.4,0,.792,0,1.188,0,.131-.017.191-.175.191-.58,0-.58.007-.58-.577,0-.293.006-.587,0-.88a.372.372,0,0,0-.424-.417q-3.319,0-6.641,0a.378.378,0,0,0-.436.429q-.006.627,0,1.253c0,.132-.017.21-.174.19-.187-.023-.438.08-.546-.043-.093-.1-.031-.348-.033-.529Q8982.323,2918.329,8982.327,2917.9Zm7.5,1.269c0,.118-.022.163-.153.163q-2.846-.006-5.7,0c-.129,0-.157-.042-.155-.162a7.5,7.5,0,0,0,0-.77c-.014-.181.062-.2.213-.194.93.006,1.861,0,2.793,0s1.877,0,2.814,0c.157,0,.2.042.189.195C8989.82,2918.655,8989.826,2918.913,8989.832,2919.169Zm6.764,15.762c0,.431-.113.543-.548.543h-18.409c-.477,0-.574-.1-.574-.583,0-1.561,0-3.124,0-4.685,0-.161.021-.2.2-.178,1.755.251,3.511.488,5.267.729.878.12,1.756.243,2.634.36.134.018.179.07.173.208-.012.263-.01.528,0,.791a1.111,1.111,0,0,0,1.108,1.1c.278.007.557.009.835,0a1.11,1.11,0,0,0,1.047-1.051c.012-.278.012-.557,0-.835,0-.132.027-.194.167-.213,1-.131,1.99-.269,2.983-.406l4.614-.635.239-.031c.266-.035.266-.035.266.245Zm-10.515-5.01c0-.307.137-.441.441-.446.214,0,.427-.005.638,0a.378.378,0,0,1,.419.425q.006,1.078,0,2.156a.375.375,0,0,1-.407.415c-.227.006-.455.006-.682,0a.377.377,0,0,1-.407-.417c0-.366,0-.733,0-1.1C8986.081,2930.61,8986.079,2930.265,8986.081,2929.92Zm11.264-1.2c0,.313-.109.443-.417.486q-2.461.34-4.921.674-1.674.23-3.35.466a.659.659,0,0,0-.087.012c-.2.059-.262-.019-.244-.221a1.232,1.232,0,0,0-.437-1.179,1.011,1.011,0,0,0-.605-.226c-.3,0-.6-.013-.9,0a1.1,1.1,0,0,0-1.045,1.049c-.008.2,0,.393,0,.605-.771-.1-1.518-.206-2.263-.309l-4.638-.64c-.564-.078-1.131-.151-1.7-.231-.313-.044-.423-.173-.423-.483q0-4.081,0-8.16c0-.347.139-.478.5-.479q1.781,0,3.563,0h16.343c.094,0,.189,0,.284.013a.35.35,0,0,1,.322.309.662.662,0,0,1,.012.153Z" transform="translate(-8807.877 -1236.281)" fill="#ff5663" stroke="#ff5663" stroke-width="0.8"/>
  </g>
</svg>
