<svg xmlns="http://www.w3.org/2000/svg" width="69.544" height="87.678" viewBox="0 0 69.544 87.678">
  <g id="Group_10" data-name="Group 10" transform="translate(-647.49 -152.26)">
    <g id="Group_9" data-name="Group 9" transform="translate(647.49 152.26)">
      <path id="Path_7" data-name="Path 7" d="M717.014,186.342h-5.948a28.845,28.845,0,0,0-57.673,0h-5.9a34.769,34.769,0,0,1,69.524,0Z" transform="translate(-647.49 -152.26)" fill="#949494"/>
      <path id="Path_8" data-name="Path 8" d="M679.963,315.305v6.1a34.752,34.752,0,0,1-32.3-33.668h5.973a28.915,28.915,0,0,0,13.5,23.4,15.473,15.473,0,0,1-.81-4.7V267.474l.083.043.079.046h5.8v24.154h5.967v5.97h-5.967v8.753a9.326,9.326,0,0,0,5.432,8.316A6.08,6.08,0,0,0,679.963,315.305Z" transform="translate(-647.638 -251.951)" fill="#949494"/>
      <path id="Path_9" data-name="Path 9" d="M886.288,288.014a34.805,34.805,0,0,1-18.464,30.036v-9.858c0-.284-.02-.534-.02-.816a9.2,9.2,0,0,0-9.247-9.131h-9.489v-5.968H856.9a9.1,9.1,0,1,0,0-18.189H843.1v-5.967h13.795a15.065,15.065,0,0,1,9.83,26.575c3.516,2.245,6.215,5.255,6.5,11.506a29.087,29.087,0,0,0,7.1-18.188Z" transform="translate(-816.745 -252.51)" fill="#949494"/>
    </g>
    <path id="Path_10" data-name="Path 10" d="M652.155,706.76h-2.416a.177.177,0,0,1-.17-.128l-.768-2.691a.177.177,0,0,1,.17-.225H658.2a.177.177,0,0,1,.171.13l.741,2.691a.177.177,0,0,1-.17.224h-2.957a.177.177,0,0,0-.177.177v9.978a.177.177,0,0,1-.177.177h-3.121a.177.177,0,0,1-.177-.177v-9.978A.177.177,0,0,0,652.155,706.76Z" transform="translate(-1.129 -477.155)" fill="#949494"/>
    <path id="Path_11" data-name="Path 11" d="M714.591,714.647h-5.459a.176.176,0,0,0-.153.088l-1.286,2.2a.177.177,0,0,1-.153.088h-3.177a.177.177,0,0,1-.153-.265l7.5-13.034a.177.177,0,0,1,.307,0l7.494,13.034a.177.177,0,0,1-.154.265h-3.177a.177.177,0,0,1-.153-.088l-1.286-2.2A.176.176,0,0,0,714.591,714.647Zm-1.492-2.736-1.081-1.849a.177.177,0,0,0-.3,0l-1.088,1.849a.177.177,0,0,0,.152.267h2.169a.177.177,0,0,0,.152-.266Z" transform="translate(-49.058 -477.086)" fill="#949494"/>
    <path id="Path_12" data-name="Path 12" d="M830.641,717.095H822.8a.177.177,0,0,1-.177-.177V703.9a.177.177,0,0,1,.176-.177l3.122-.009a.177.177,0,0,1,.177.177v9.969a.177.177,0,0,0,.177.177h5.187a.177.177,0,0,1,.169.228l-.822,2.7A.177.177,0,0,1,830.641,717.095Z" transform="translate(-151.536 -477.158)" fill="#949494"/>
    <path id="Path_13" data-name="Path 13" d="M896.808,716.879v-13a.177.177,0,0,1,.177-.177h3.768a9.68,9.68,0,0,1,2.966.415,3.973,3.973,0,0,1,1.988,1.329,4.044,4.044,0,0,1,.09,4.44,3.148,3.148,0,0,1-1.453,1.263.178.178,0,0,0-.087.255l3.247,5.4a.177.177,0,0,1-.151.268H903.7a.177.177,0,0,1-.155-.092l-3.225-5.9h-.04v5.8a.177.177,0,0,1-.177.177h-3.121A.177.177,0,0,1,896.808,716.879Zm3.475-6.772a.179.179,0,0,0,.182.178,4.315,4.315,0,0,0,1.276-.2,1.716,1.716,0,0,0,.889-.632,1.891,1.891,0,0,0,.31-1.122,1.487,1.487,0,0,0-.659-1.414,3.944,3.944,0,0,0-1.816-.375.179.179,0,0,0-.182.178Z" transform="translate(-215.726 -477.147)" fill="#949494"/>
    <path id="Path_14" data-name="Path 14" d="M988.481,704.986a6.635,6.635,0,0,1,2.437,2.417,6.513,6.513,0,0,1,.9,3.349,6.431,6.431,0,0,1-.9,3.339,6.725,6.725,0,0,1-11.579,0,6.429,6.429,0,0,1-.9-3.339,6.509,6.509,0,0,1,.9-3.349,6.726,6.726,0,0,1,9.142-2.417Zm-5.142,2.543a3.873,3.873,0,0,0-1.794,3.223,3.653,3.653,0,0,0,.491,1.826,3.843,3.843,0,0,0,1.3,1.406,3.3,3.3,0,0,0,3.58,0,3.923,3.923,0,0,0,1.312-1.406,3.7,3.7,0,0,0,0-3.653,3.859,3.859,0,0,0-1.3-1.4,3.311,3.311,0,0,0-1.794-.528A3.252,3.252,0,0,0,983.338,707.528Z" transform="translate(-286.357 -477.488)" fill="#949494"/>
    <path id="Path_15" data-name="Path 15" d="M1088.074,716.906V703.883a.177.177,0,0,1,.177-.177h4.057a12.064,12.064,0,0,1,2.417.207,4.925,4.925,0,0,1,1.758.7,3.22,3.22,0,0,1,1.138,1.329,4.731,4.731,0,0,1,.4,2.046,3.843,3.843,0,0,1-.4,1.772,3.993,3.993,0,0,1-1.109,1.339,5.056,5.056,0,0,1-1.687.858,6.979,6.979,0,0,1-2.047.3h-1.042a.177.177,0,0,0-.177.177v4.473a.177.177,0,0,1-.177.177h-3.131A.177.177,0,0,1,1088.074,716.906Zm3.485-10.186v2.521a.177.177,0,0,0,.177.177h.822a2.486,2.486,0,0,0,1.478-.377,1.243,1.243,0,0,0,.509-1.075,1.223,1.223,0,0,0-.509-1.056,2.534,2.534,0,0,0-1.478-.368h-.822a.177.177,0,0,0-.177.177Z" transform="translate(-381.222 -477.147)" fill="#949494"/>
  </g>
</svg>
