<svg xmlns="http://www.w3.org/2000/svg" width="50" height="50" viewBox="0 0 50 50">
  <g id="Mail" transform="translate(-631 -8643)">
    <g id="Rectangle_17552" data-name="Rectangle 17552" transform="translate(631 8643)" fill="#d5f0e6" stroke="#0fa76f" stroke-width="1" opacity="0.37">
      <rect width="50" height="50" rx="6" stroke="none"/>
      <rect x="0.5" y="0.5" width="49" height="49" rx="5.5" fill="none"/>
    </g>
    <g id="Group_42384" data-name="Group 42384" transform="translate(-6845.155 4593.964)">
      <path id="Path_99847" data-name="Path 99847" d="M7488.528,4156.966v-11.554c.113-.067.185.022.262.073q4.956,3.311,9.916,6.615a4.222,4.222,0,0,0,2.172.811,3.589,3.589,0,0,0,1.644-.3,6,6,0,0,0,.872-.5q4.948-3.3,9.9-6.6a1.1,1.1,0,0,1,.145-.092c.121-.058.188-.03.183.115,0,.065,0,.13,0,.2,0,3.615-.023,7.229.012,10.844a2.382,2.382,0,0,1-2.362,2.417c-.057,0-.115,0-.171,0q-10.06,0-20.121,0a2.436,2.436,0,0,1-2.219-1.236A2.306,2.306,0,0,1,7488.528,4156.966Z" transform="translate(0.001 -75.065)" fill="#0fa76f"/>
      <path id="Path_99848" data-name="Path 99848" d="M7488.528,4067.018c.056-.167.1-.339.169-.5a2.3,2.3,0,0,1,2.063-1.447c.065,0,.13,0,.2,0q10.109,0,20.217,0a2.307,2.307,0,0,1,2.417,2.386,2.2,2.2,0,0,1-1.086,1.835q-3.034,2.012-6.059,4.038l-3.924,2.615a2.327,2.327,0,0,1-2.923-.005c-3.212-2.142-6.418-4.292-9.642-6.417a2.853,2.853,0,0,1-1.427-1.817Z" transform="translate(0.001 0)" fill="#0fa76f"/>
    </g>
  </g>
</svg>
