<svg xmlns="http://www.w3.org/2000/svg" xmlns:xlink="http://www.w3.org/1999/xlink" width="141.906" height="141.905" viewBox="0 0 141.906 141.905">
  <defs>
    <filter id="Ellipse_710" x="19.991" y="22.99" width="101.587" height="101.587" filterUnits="userSpaceOnUse">
      <feOffset dy="3" input="SourceAlpha"/>
      <feGaussianBlur stdDeviation="4" result="blur"/>
      <feFlood flood-opacity="0.149"/>
      <feComposite operator="in" in2="blur"/>
      <feComposite in="SourceGraphic"/>
    </filter>
  </defs>
  <g id="play-button" transform="translate(0.466 0.769)">
    <path id="Ellipse_709" data-name="Ellipse 709" d="M70.953,0A70.953,70.953,0,1,1,0,70.953,70.953,70.953,0,0,1,70.953,0Z" transform="translate(-0.466 -0.769)" fill="#fff"/>
    <g transform="matrix(1, 0, 0, 1, -0.47, -0.77)" filter="url(#Ellipse_710)">
      <circle id="Ellipse_710-2" data-name="Ellipse 710" cx="38.793" cy="38.793" r="38.793" transform="translate(31.99 31.99)" fill="#d6ecd4"/>
    </g>
    <path id="Polygon_2" data-name="Polygon 2" d="M12.051,1.342a2.626,2.626,0,0,1,4.582,0L28.348,22.234a2.626,2.626,0,0,1-2.294,3.91H2.63a2.626,2.626,0,0,1-2.294-3.91Z" transform="translate(86.563 55.841) rotate(90)" fill="#5db756"/>
  </g>
</svg>
