<svg xmlns="http://www.w3.org/2000/svg" width="100" height="100" viewBox="0 0 100 100">
  <g id="Group_42317" data-name="Group 42317" transform="translate(-1215 -8364)">
    <path id="Path_99755" data-name="Path 99755" d="M50,0A50,50,0,1,1,0,50,50,50,0,0,1,50,0Z" transform="translate(1215 8364)" fill="#fff4f3"/>
    <g id="Group_42314" data-name="Group 42314" transform="translate(-4501.056 6591.764)">
      <path id="Path_99811" data-name="Path 99811" d="M6080.575,2136.958a.689.689,0,0,1-.691-.714.705.705,0,0,1,.689-.69.723.723,0,0,1,.717.7A.709.709,0,0,1,6080.575,2136.958Z" transform="translate(-308.558 -308.084)" fill="#ff5663" stroke="#ff5663" stroke-width="0.5"/>
      <path id="Path_99812" data-name="Path 99812" d="M5783.144,1904.562c-.416-.44-.844-.871-1.288-1.283a2.274,2.274,0,0,0-2.523-.48.349.349,0,0,1-.447-.1c-.628-.641-1.259-1.281-1.907-1.9-.2-.19-.178-.293-.008-.491a2.416,2.416,0,0,0-1.063-3.9c-.194-.067-.257-.123-.224-.352a2.389,2.389,0,0,0-1.679-2.747c-.172-.06-.2-.109-.167-.285a2.4,2.4,0,0,0-1.6-2.761c-.213-.073-.276-.149-.234-.386a2.409,2.409,0,0,0-1.91-2.777c-.313-.067-.628-.011-.939-.069-1.509-.286-3.017-.581-4.527-.858a2.308,2.308,0,0,0-2.123.333c-.091.081-.167.036-.257.015a2.426,2.426,0,0,0-3.046,2.809c.031.213-.042.246-.2.3a2.4,2.4,0,0,0-1.649,2.73c.031.188.011.277-.194.349a2.412,2.412,0,0,0-1.391,3.482c.092.176.083.221-.1.31a2.414,2.414,0,0,0-.771,3.865c.144.162.14.237-.012.383q-.99.963-1.956,1.951a.367.367,0,0,1-.451.106,2.026,2.026,0,0,0-2.084.3c-.951.853-2.106,1.588-2.3,3.029,0,.006-.021.008-.031.012v.21c.115.034.065.134.076.2a2.4,2.4,0,0,0,.667,1.354q.754.755,1.509,1.508a.792.792,0,0,0,.347.224.713.713,0,0,0,.795-.294.68.68,0,0,0-.1-.866c-.494-.511-1.007-1-1.5-1.513a.91.91,0,0,1-.09-1.316c.435-.471.891-.923,1.363-1.356a.85.85,0,0,1,1.167.022c.762.637,1.43,1.37,2.126,2.072,1.789,1.8,3.631,3.554,5.369,5.409.544.581.565,1,0,1.57-.329.33-.656.662-.989.988a.969.969,0,0,1-1.549,0c-.473-.467-.936-.945-1.412-1.407a.7.7,0,1,0-.984,1c.506.516,1.012,1.033,1.534,1.533a2.33,2.33,0,0,0,3.252.025c.461-.428.9-.877,1.336-1.334a2.285,2.285,0,0,0,.409-2.622.316.316,0,0,1,.075-.44c.757-.743,1.514-1.487,2.25-2.25a1.256,1.256,0,0,1,.956-.421c.14,0,.279-.008.419-.006a20.078,20.078,0,0,0,2.515.058c.143-.016.209.078.291.158.85.848,1.7,1.7,2.552,2.543a.3.3,0,0,1,.085.386,2.278,2.278,0,0,0,.514,2.6c.395.412.8.813,1.212,1.211a2.322,2.322,0,0,0,3.328.005q3.787-3.756,7.547-7.539A2.312,2.312,0,0,0,5783.144,1904.562Zm-19.258-17.064c1.177.2,2.351.415,3.61.64-.619.619-1.179,1.176-1.733,1.738a.168.168,0,0,1-.24.033,4.653,4.653,0,0,1-1.924-2.052C5763.445,1887.514,5763.507,1887.434,5763.885,1887.5Zm-3.153.8a1.049,1.049,0,0,1,1.171-.406.476.476,0,0,1,.33.316,5.606,5.606,0,0,0,3.1,3.145.677.677,0,0,1,.464.679,1.014,1.014,0,0,1-1.038,1.039.857.857,0,0,1-.641-.231c-1.111-1.1-2.221-2.2-3.314-3.311A1,1,0,0,1,5760.732,1888.3Zm-1.726,2.936a1.013,1.013,0,0,1,1.469-.008c.868.843,1.721,1.7,2.569,2.562a1.027,1.027,0,0,1-.732,1.741.956.956,0,0,1-.726-.286c-.857-.853-1.719-1.7-2.566-2.566A1.01,1.01,0,0,1,5759.007,1891.235Zm-1.84,3.067a.991.991,0,0,1,1.362-.083c.73.683,1.425,1.4,2.125,2.117a.844.844,0,0,1,.217.645.965.965,0,0,1-.559.9.929.929,0,0,1-1.082-.1,27.3,27.3,0,0,1-2.145-2.144A.98.98,0,0,1,5757.167,1894.3Zm-1.412,3.96a.989.989,0,0,1,.84-.575,2.4,2.4,0,0,1,1.817,1.7.978.978,0,0,1-.547.94.937.937,0,0,1-1.083-.08,7.131,7.131,0,0,1-.918-.905A.951.951,0,0,1,5755.755,1898.261Zm15.6,11.875c-.639-.662-1.294-1.311-1.955-1.953-.16-.155-.151-.217.021-.358a9.665,9.665,0,0,0,.858-.821.684.684,0,0,0,.025-1,.708.708,0,0,0-1.029.02.739.739,0,0,0-.1.1,2.773,2.773,0,0,1-2.718.979,11.929,11.929,0,0,0-2.095-.05,2.366,2.366,0,0,0-1.524.687c-.777.789-1.569,1.564-2.345,2.354-.147.149-.222.166-.38.006q-3.048-3.06-6.115-6.1c-.167-.166-.15-.25.008-.4q.967-.938,1.906-1.9a.3.3,0,0,1,.414-.074,2.419,2.419,0,0,0,3.479-1.977c.018-.18.073-.228.241-.253a2.371,2.371,0,0,0,2.221-2.25c.023-.147.078-.186.216-.207a2.367,2.367,0,0,0,2.246-2.227c.028-.179.093-.218.261-.234a2.441,2.441,0,0,0,2.222-2.49,2.375,2.375,0,0,0-.268-1.026.229.229,0,0,1,.051-.327c.625-.612,1.233-1.241,1.862-1.849a1.019,1.019,0,0,1,1.473-.013,1.031,1.031,0,0,1-.04,1.5c-.392.4-.793.79-1.187,1.187a.716.716,0,1,0,1.006.988c.2-.2.392-.4.6-.591a1.03,1.03,0,1,1,1.47,1.443c-.4.426-.824.825-1.233,1.241a.712.712,0,1,0,.986,1c.217-.211.423-.435.649-.637a1.028,1.028,0,0,1,1.459,1.447c-.371.4-.771.779-1.156,1.17a.728.728,0,0,0-.093,1.078.717.717,0,0,0,1.078-.076c.176-.17.341-.353.522-.518a1.034,1.034,0,0,1,1.476-.008,1.02,1.02,0,0,1-.023,1.473c-.51.529-1.043,1.035-1.553,1.564a.7.7,0,0,0,.973,1.008c.054-.045.1-.1.152-.145.338-.334.338-.334.671,0,.585.585,1.167,1.175,1.762,1.75.15.147.164.222,0,.379q-3.067,3.043-6.115,6.1C5771.595,1910.262,5771.519,1910.3,5771.355,1910.136Zm10.735-3.229q-3.729,3.736-7.47,7.46a.93.93,0,0,1-1.421-.01c-.394-.38-.783-.765-1.163-1.16a.928.928,0,0,1,.007-1.4q3.729-3.736,7.467-7.462a.928.928,0,0,1,.717-.305.906.906,0,0,1,.686.292c.4.395.8.783,1.186,1.186A.924.924,0,0,1,5782.091,1906.906Z" transform="translate(0 -76.098)" fill="#ff5663" stroke="#ff5663" stroke-width="0.5"/>
      <path id="Path_99813" data-name="Path 99813" d="M5993.3,1804.236a.9.9,0,0,1,.5.936c-.025.929,0,1.86-.008,2.79,0,.514-.264.82-.7.822s-.707-.314-.709-.813c0-.93.016-1.86-.008-2.79a.944.944,0,0,1,.5-.945Z" transform="translate(-227.197 0)" fill="#ff5663" stroke="#ff5663" stroke-width="0.5"/>
      <path id="Path_99814" data-name="Path 99814" d="M5829.631,1807.745a.7.7,0,0,1,.4-.7.648.648,0,0,1,.722.069,5.163,5.163,0,0,1,.431.407q1.065,1.059,2.126,2.121a.725.725,0,0,1,.1,1.081.733.733,0,0,1-1.1-.093c-.792-.788-1.582-1.579-2.375-2.367A.764.764,0,0,1,5829.631,1807.745Z" transform="translate(-75.853 -2.543)" fill="#ff5663" stroke="#ff5663" stroke-width="0.5"/>
      <path id="Path_99815" data-name="Path 99815" d="M6118.975,1810.23a.678.678,0,0,1,.242-.491c.823-.822,1.643-1.648,2.471-2.465a.7.7,0,1,1,1,.986c-.818.827-1.646,1.646-2.467,2.47a.711.711,0,0,1-.826.193A.668.668,0,0,1,6118.975,1810.23Z" transform="translate(-344.907 -2.587)" fill="#ff5663" stroke="#ff5663" stroke-width="0.5"/>
      <path id="Path_99816" data-name="Path 99816" d="M5808.593,2234.8a.692.692,0,0,1-.7-.711.7.7,0,0,1,1.4.012A.688.688,0,0,1,5808.593,2234.8Z" transform="translate(-55.645 -399.062)" fill="#ff5663" stroke="#ff5663" stroke-width="0.5"/>
      <path id="Path_99817" data-name="Path 99817" d="M6081.29,2136.258a.709.709,0,0,1-.715.7.689.689,0,0,1-.691-.714.705.705,0,0,1,.689-.69A.723.723,0,0,1,6081.29,2136.258Z" transform="translate(-308.558 -308.084)" fill="#ff5663" stroke="#ff5663" stroke-width="0.5"/>
      <path id="Path_99818" data-name="Path 99818" d="M6081.29,2136.258a.709.709,0,0,1-.715.7.689.689,0,0,1-.691-.714.705.705,0,0,1,.689-.69A.723.723,0,0,1,6081.29,2136.258Z" transform="translate(-308.558 -308.084)" fill="#ff5663" stroke="#ff5663" stroke-width="0.5"/>
    </g>
  </g>
</svg>
