<svg xmlns="http://www.w3.org/2000/svg" width="53" height="51" viewBox="0 0 53 51">
  <g id="Red" transform="translate(-152 -1664)">
    <rect id="Rectangle_14745" data-name="Rectangle 14745" width="53" height="51" rx="6" transform="translate(152 1664)" fill="#fff4f3"/>
    <g id="Polygon_2" data-name="Polygon 2" transform="translate(193 1676) rotate(90)" fill="none">
      <path d="M10.545,5.923a4,4,0,0,1,6.91,0l7.036,12.061A4,4,0,0,1,21.036,24H6.964a4,4,0,0,1-3.455-6.015Z" stroke="none"/>
      <path d="M 14.00000095367432 6.93853759765625 C 13.78549098968506 6.93853759765625 13.38803100585938 7.002996444702148 13.13622093200684 7.434667587280273 L 6.100370407104492 19.49612808227539 C 5.846601486206055 19.93116760253906 5.989330291748047 20.31059646606445 6.097000122070312 20.4980583190918 C 6.204671859741211 20.68551635742188 6.460500717163086 20.99999809265137 6.964151382446289 20.99999809265137 L 21.03585052490234 20.99999809265137 C 21.53950119018555 20.99999809265137 21.79533004760742 20.68551635742188 21.90299987792969 20.4980583190918 C 22.01067161560059 20.31059646606445 22.15340042114258 19.93116760253906 21.89963150024414 19.49612808227539 L 14.86379051208496 7.434677124023438 C 14.61197090148926 7.002996444702148 14.21451091766357 6.93853759765625 14.00000095367432 6.93853759765625 M 14.00000095367432 3.938543319702148 C 15.3416805267334 3.938543319702148 16.6833610534668 4.600048065185547 17.45512008666992 5.923057556152344 L 24.49097061157227 17.98451614379883 C 26.04650115966797 20.65113830566406 24.12302017211914 23.99999809265137 21.03585052490234 23.99999809265137 L 6.964151382446289 23.99999809265137 C 3.876981735229492 23.99999809265137 1.953500747680664 20.65113830566406 3.509031295776367 17.98451614379883 L 10.54488182067871 5.923057556152344 C 11.31664085388184 4.600048065185547 12.65832138061523 3.938543319702148 14.00000095367432 3.938543319702148 Z" stroke="none" fill="#ff5663"/>
    </g>
  </g>
</svg>
