<svg xmlns="http://www.w3.org/2000/svg" width="100" height="100" viewBox="0 0 100 100">
  <g id="Group_42319" data-name="Group 42319" transform="translate(-1008 -8769)">
    <rect id="Rectangle_17371" data-name="Rectangle 17371" width="100" height="100" rx="50" transform="translate(1008 8769)" fill="#f0eaf9"/>
    <g id="Group_42311" data-name="Group 42311" transform="translate(1238 17167.773)">
      <path id="Path_99795" data-name="Path 99795" d="M5184.438,1951.285a5.217,5.217,0,1,0,5.207,5.232A5.217,5.217,0,0,0,5184.438,1951.285Zm-.03,8.346a3.129,3.129,0,0,1,.006-6.258,3.129,3.129,0,1,1-.006,6.258Z" transform="translate(-5357.768 -10312.138)" fill="#8a62d6" stroke="#8a62d6" stroke-width="0.5"/>
      <path id="Path_99796" data-name="Path 99796" d="M4939.933,1867.808a2.719,2.719,0,0,0-2.082-2.451c-.172-.046-.37,0-.521-.123h-.281c-.065.063-.147.026-.222.036-.089-.013-.187.032-.27-.036h-1.615c-.063.061-.143.027-.213.036h-.537c-.057,0-.116.013-.163-.036h-.21c-.459.087-.926.05-1.388.1a26.733,26.733,0,0,0-4.407.836,22.674,22.674,0,0,0-6.481,2.882,28.879,28.879,0,0,0-6.024,5.383.754.754,0,0,1-.506.27c-.349.048-.7.048-1.048.081-1.1.1-2.21.208-3.317.253a3.447,3.447,0,0,0-2.985,1.656c-1.023,1.608-2.08,3.2-3.149,4.775a2.591,2.591,0,0,0-.467,1.042v.772c.02.027.05.052.058.081a1.891,1.891,0,0,0,1.671,1.477c1.339.206,2.678.42,4.018.62.221.033.328.082.284.342a2.7,2.7,0,0,0,.828,2.455q3.034,3.047,6.081,6.081a2.7,2.7,0,0,0,2.457.821c.238-.04.3.045.329.259q.308,2.063.635,4.123a1.907,1.907,0,0,0,2.948,1.332c1.834-1.185,3.65-2.4,5.466-3.614a2.651,2.651,0,0,0,1.217-2.071c.121-1.48.244-2.96.342-4.443a1.473,1.473,0,0,1,.626-1.335,6.821,6.821,0,0,0,.941-.84C4937.987,1882.948,4940.347,1875.908,4939.933,1867.808Zm-29.236,15.365c-.047.16-.079.3-.319.256-1.349-.221-2.7-.424-4.053-.635a.638.638,0,0,1,.163-.314q1.562-2.369,3.126-4.738a.846.846,0,0,1,.661-.458c1.106-.083,2.213-.172,3.394-.265A26.047,26.047,0,0,0,4912,1879.9,21.265,21.265,0,0,0,4910.7,1883.173Zm9.967,9.578c-.484.127-.98.209-1.47.321a.708.708,0,0,1-.7-.21q-3.065-3.062-6.126-6.127a.739.739,0,0,1-.2-.705,17.883,17.883,0,0,1,.8-2.991l9.223,9.227A9.556,9.556,0,0,1,4920.664,1892.751Zm7.271,2.276a.665.665,0,0,1-.327.512l-5.159,3.414c-.086-.545-.166-1.054-.246-1.564q-.193-1.229-.386-2.459c-.029-.181-.042-.311.2-.385A23.182,23.182,0,0,0,4928,1891.7c.047-.031.1-.06.213-.132C4928.121,1892.768,4928.027,1893.9,4927.935,1895.027Zm8.949-18.165a22.1,22.1,0,0,1-6.429,10.219,25.365,25.365,0,0,1-5.832,4.159.373.373,0,0,1-.526-.092q-5-5.009-10-10a.388.388,0,0,1-.085-.556,25.194,25.194,0,0,1,10.707-10.818,22.566,22.566,0,0,1,8.285-2.3c.758-.076,1.517-.118,2.277-.124.491,0,.983-.012,1.473,0,.949.028,1.1.176,1.128,1.113A27.693,27.693,0,0,1,4936.883,1876.863Z" transform="translate(-5102.046 -10232.166)" fill="#8a62d6" stroke="#8a62d6" stroke-width="0.5"/>
      <path id="Path_99797" data-name="Path 99797" d="M4904.051,2259.566a3.452,3.452,0,0,1,.662-.821q3.067-3.058,6.127-6.122a1.039,1.039,0,0,1,1.8.379,1.1,1.1,0,0,1-.376,1.154q-2.464,2.454-4.92,4.918l-1.279,1.279c-.8.8-1.452.723-2.017-.229Z" transform="translate(-5102.051 -10591.866)" fill="#8a62d6" stroke="#8a62d6" stroke-width="0.5"/>
      <path id="Path_99799" data-name="Path 99799" d="M5366.228,1865.3c-.1,0-.207.043-.283-.061h.278q.032.018.023.039C5366.24,1865.289,5366.234,1865.3,5366.228,1865.3Z" transform="translate(-5531.403 -10232.167)" fill="#8a62d6" stroke="#8a62d6" stroke-width="0.5"/>
      <path id="Path_99800" data-name="Path 99800" d="M5339.873,1865.235c-.05.087-.133.066-.21.063-.021-.015-.028-.029-.021-.043s.015-.02.023-.02Z" transform="translate(-5506.933 -10232.167)" fill="#8a62d6" stroke="#8a62d6" stroke-width="0.5"/>
      <path id="Path_99801" data-name="Path 99801" d="M5369.939,1865.3a.421.421,0,0,1,0-.061h.208C5370.1,1865.34,5370.013,1865.294,5369.939,1865.3Z" transform="translate(-5535.115 -10232.167)" fill="#8a62d6" stroke="#8a62d6" stroke-width="0.5"/>
      <path id="Path_99802" data-name="Path 99802" d="M5330.168,1865.294c-.058.009-.121.03-.137-.058h.139c.023.014.031.027.023.04S5330.176,1865.294,5330.168,1865.294Z" transform="translate(-5497.995 -10232.167)" fill="#8a62d6" stroke="#8a62d6" stroke-width="0.5"/>
      <path id="Path_99803" data-name="Path 99803" d="M5332,1865.294c0-.02,0-.039,0-.058h.139c.023.014.031.027.022.039s-.016.018-.024.018Z" transform="translate(-5499.827 -10232.167)" fill="#8a62d6" stroke="#8a62d6" stroke-width="0.5"/>
      <path id="Path_99804" data-name="Path 99804" d="M5333.983,1865.293c0-.019,0-.038,0-.057h.139c.023.014.031.027.022.04s-.017.018-.025.018Z" transform="translate(-5501.671 -10232.167)" fill="#8a62d6" stroke="#8a62d6" stroke-width="0.5"/>
      <path id="Path_99805" data-name="Path 99805" d="M5335.977,1865.294c0-.02,0-.039,0-.059h.14c.023.015.03.028.022.041s-.017.019-.025.019Z" transform="translate(-5503.526 -10232.167)" fill="#8a62d6" stroke="#8a62d6" stroke-width="0.5"/>
      <path id="Path_99806" data-name="Path 99806" d="M5337.968,1865.3a.491.491,0,0,0,0-.06h.139a.552.552,0,0,1,0,.063Z" transform="translate(-5505.378 -10232.167)" fill="#8a62d6" stroke="#8a62d6" stroke-width="0.5"/>
      <path id="Path_99807" data-name="Path 99807" d="M4999.345,2298.09a1.024,1.024,0,0,1-.315.671c-1.13,1.131-2.255,2.267-3.394,3.388a1.04,1.04,0,1,1-1.466-1.474q1.687-1.7,3.391-3.391a1.009,1.009,0,0,1,1.154-.225A1.05,1.05,0,0,1,4999.345,2298.09Z" transform="translate(-5185.517 -10633.464)" fill="#8a62d6" stroke="#8a62d6" stroke-width="0.5"/>
      <path id="Path_99808" data-name="Path 99808" d="M4904.832,2212.093l0-.441a1.065,1.065,0,0,1,.341-.589q1.635-1.633,3.27-3.268a1.049,1.049,0,0,1,1.543-.073,1.06,1.06,0,0,1-.067,1.546q-1.644,1.651-3.295,3.292A1.029,1.029,0,0,1,4904.832,2212.093Z" transform="translate(-5102.775 -10550.225)" fill="#8a62d6" stroke="#8a62d6" stroke-width="0.5"/>
      <path id="Path_99809" data-name="Path 99809" d="M5184.438,1951.285a5.217,5.217,0,1,0,5.207,5.232A5.217,5.217,0,0,0,5184.438,1951.285Zm-.03,8.346a3.129,3.129,0,0,1,.006-6.258,3.129,3.129,0,1,1-.006,6.258Z" transform="translate(-5357.768 -10312.138)" fill="#8a62d6" stroke="#8a62d6" stroke-width="0.5"/>
      <path id="Path_99810" data-name="Path 99810" d="M5184.438,1951.285a5.217,5.217,0,1,0,5.207,5.232A5.217,5.217,0,0,0,5184.438,1951.285Zm-.03,8.346a3.129,3.129,0,0,1,.006-6.258,3.129,3.129,0,1,1-.006,6.258Z" transform="translate(-5357.768 -10312.138)" fill="#8a62d6" stroke="#8a62d6" stroke-width="0.5"/>
    </g>
  </g>
</svg>
