<svg xmlns="http://www.w3.org/2000/svg" width="100" height="100" viewBox="0 0 100 100">
  <g id="Group_42318" data-name="Group 42318" transform="translate(-595 -8769)">
    <path id="Path_99756" data-name="Path 99756" d="M50,0A50,50,0,1,1,0,50,50,50,0,0,1,50,0Z" transform="translate(595 8769)" fill="#e9f7f2"/>
    <path id="Path_99832" data-name="Path 99832" d="M6622.643,1811.22a2.963,2.963,0,0,0-.015-.405,1.053,1.053,0,0,0-1.011-.987,4.884,4.884,0,0,0-.549-.013h-8.621c-.88,0-.8.055-.805-.787,0-.086,0-.173,0-.259a3.414,3.414,0,0,0-3.368-3.375c-2.96-.043-5.919-.038-8.877,0a3.379,3.379,0,0,0-3.34,2.958,6.969,6.969,0,0,0-.048,1.1c0,.244-.095.37-.348.359-.122-.005-.244,0-.367,0q-4.475,0-8.951,0a1.147,1.147,0,0,0-1.3.927v25.052a.222.222,0,0,1,.036.1,2.776,2.776,0,0,0,1.238,2.273,3.736,3.736,0,0,0,2.348.7q13.7-.007,27.4,0c1.052,0,2.1,0,3.155,0a3.386,3.386,0,0,0,3.44-3.484C6622.625,1827.327,6622.644,1819.273,6622.643,1811.22Zm-24.33-1.629c.023-.232,0-.467.005-.7a1.108,1.108,0,0,1,1.173-1.176c1.722-.006,3.446,0,5.167,0,1.136,0,2.272,0,3.408,0a1.125,1.125,0,0,1,1.256,1.275c0,.3.132.7-.052.886s-.579.051-.88.052c-1.527.005-3.054,0-4.582,0-1.721,0-3.444-.008-5.166.008C6598.358,1809.94,6598.288,1809.857,6598.313,1809.591Zm21.66,2.574c-.656,1.98-1.3,3.935-1.95,5.891q-.68,2.062-1.363,4.123a1.232,1.232,0,0,1-1.448,1.052c-1.859,0-3.717-.006-5.576.007-.261,0-.343-.066-.316-.324a6.153,6.153,0,0,0,0-.665,1.121,1.121,0,0,0-1.229-1.235c-2.69,0-5.382.031-8.071-.014-1.329-.022-1.795.4-1.712,1.73.033.5.005.5-.488.5h-5.467a1.172,1.172,0,0,1-1.335-.949q-1.652-4.979-3.3-9.959c-.015-.044-.028-.09-.049-.158Zm-12.845,13.061c0,.178-.048.227-.225.227q-3.082-.009-6.163,0c-.176,0-.228-.047-.225-.226.011-.578.013-1.158,0-1.736,0-.209.055-.266.262-.264,1.015.01,2.03,0,3.045,0s2.005.008,3.007-.006c.239,0,.308.059.3.3C6607.111,1824.092,6607.118,1824.66,6607.128,1825.226Zm13.279,9.908c0,1.013-.386,1.4-1.4,1.4h-30.374c-1.014,0-1.4-.384-1.4-1.4v-17.081l.06-.007c.446,1.345.888,2.692,1.338,4.035a8.641,8.641,0,0,0,.614,1.652,3.245,3.245,0,0,0,2.964,1.709c1.907.01,3.814.012,5.722-.007.325,0,.43.078.389.4a4.437,4.437,0,0,0,0,.665,1.1,1.1,0,0,0,1.153,1.16c.967.008,1.932,0,2.9,0q2.826,0,5.649,0a1.145,1.145,0,0,0,1.307-1.306c0-.293-.094-.677.054-.852s.549-.055.838-.056c1.687-.005,3.375,0,5.062,0a3.34,3.34,0,0,0,3.438-2.486q.768-2.323,1.539-4.645a.568.568,0,0,1,.148-.259Z" transform="translate(-5959.063 6997.504)" fill="#0fa76f" stroke="#0fa770" stroke-width="0.5"/>
  </g>
</svg>
