<svg xmlns="http://www.w3.org/2000/svg" xmlns:xlink="http://www.w3.org/1999/xlink" width="67" height="65" viewBox="0 0 67 65">
  <defs>
    <linearGradient id="linear-gradient" x1="0.499" y1="0.06" x2="0.499" y2="1.06" gradientUnits="objectBoundingBox">
      <stop offset="0.1" stop-color="#ff80ff"/>
      <stop offset="0.39" stop-color="#ff7bf9"/>
      <stop offset="0.77" stop-color="#ff6eea"/>
      <stop offset="1" stop-color="#ff62dc"/>
    </linearGradient>
  </defs>
  <g id="tech" transform="translate(-28 -31)">
    <g id="enter" transform="translate(0 1)">
      <g id="Group_42207" data-name="Group 42207" transform="translate(-123.988 -1221.725)">
        <rect id="Rectangle_14743" data-name="Rectangle 14743" width="67" height="65" rx="6" transform="translate(151.988 1251.725)" fill="rgba(3,169,244,0.07)"/>
      </g>
    </g>
    <g id="icon2" transform="translate(40 41.957)">
      <path id="Path_99780" data-name="Path 99780" d="M7.673,27.667l-.021-.032a2.616,2.616,0,0,1-.75-1.587,2.669,2.669,0,0,1,.118-1.126,3.233,3.233,0,0,1,.257-.825l.086-.182L15.23,10H38.654a2.7,2.7,0,0,1,2.659,2.541l.011.172v24.57a2.7,2.7,0,0,1-2.508,2.734l-.172.011H19.872a2.68,2.68,0,0,0,.686-2.112,2.172,2.172,0,0,0-1.018-1.576l-.161-.107L7.995,27.945l-.15-.107v-.011l.15.107a2.7,2.7,0,0,1-.289-.225l-.032-.032Z" transform="translate(0.424 0.573)" fill="url(#linear-gradient)"/>
      <path id="Path_99781" data-name="Path 99781" d="M23.566,2.1a2.691,2.691,0,0,1,2.133.44L32.731,7.6a2.68,2.68,0,0,1,.986,3v-.032L24.605,38.445l-.054.214-.032.086-.032.1-.161.343-.021.043-.2.311-.032.043a3.108,3.108,0,0,1-.247.268l-.032.021a2.4,2.4,0,0,1-.622.429l-.032.032a1.814,1.814,0,0,1-.332.139h-.054l-.354.086h-.054a2.466,2.466,0,0,1-.386.032H3.712A2.712,2.712,0,0,1,1,37.855V13.306a2.72,2.72,0,0,1,2.712-2.734H17.723L21.8,3.39a2.68,2.68,0,0,1,1.565-1.233l.193-.054Z" transform="translate(0)" fill="#0073e6"/>
      <path id="Path_99782" data-name="Path 99782" d="M33,10,24.027,37.872l-.021.107-.021.107-.032.086-.032.1-.075.172-.086.172-.021.043-.107.161-.1.15-.032.043-.118.139-.129.129-.032.021a2,2,0,0,1-.279.247l-.161.107-.182.086-.032.021-.161.075-.172.064h-.054l-.172.054-.107.011.107-.107a2.654,2.654,0,0,0,.547-1.951,2.172,2.172,0,0,0-1.018-1.576l-.161-.107L9.994,27.935l-.15-.107a2.723,2.723,0,0,1-.279-.279l-.043-.054q-.067-.073-.129-.15L9.372,27.3l-.032-.043a2.6,2.6,0,0,1-.182-.322l-.032-.064a2.68,2.68,0,0,1-.161-.45l-.011-.075-.021-.107-.011-.064a2.691,2.691,0,0,1,.054-1.083L9,25q.02-.054.043-.107a2.669,2.669,0,0,1,.225-.793l.107-.182L17.219,10H32.988Z" transform="translate(0.568 0.573)" fill="#fff"/>
    </g>
  </g>
</svg>
