<svg xmlns="http://www.w3.org/2000/svg" width="53" height="51" viewBox="0 0 53 51">
  <g id="Technology_" data-name="Technology " transform="translate(-152 -1458)">
    <rect id="Rectangle_14744" data-name="Rectangle 14744" width="53" height="51" rx="6" transform="translate(152 1458)" fill="#ffab00" opacity="0.12"/>
    <g id="Group_38769" data-name="Group 38769" transform="translate(-563.704 993.57)">
      <g id="Layer_2" data-name="Layer 2" transform="translate(739.142 475.43)">
        <g id="Cursor">
          <path id="Path_94123" data-name="Path 94123" d="M745.981,475.436a4.97,4.97,0,0,0-3.192,8.548.96.96,0,0,0,1.579-.456.936.936,0,0,0-.241-.914,3.059,3.059,0,0,1-.956-2.247,3.092,3.092,0,0,1,2.867-3.019,3.058,3.058,0,0,1,3.059,2.022.9.9,0,0,0,.692.6h.082a.941.941,0,0,0,1.032-1.246A4.968,4.968,0,0,0,745.981,475.436Z" transform="translate(-741.261 -475.43)" fill="#feab00"/>
          <path id="Path_94124" data-name="Path 94124" d="M757.64,486.266l-10.02-5.838a1,1,0,0,0-1.495,1l1.583,11.491a1,1,0,0,0,1.529.7.868.868,0,0,0,.172-.145l2.764-2.89,2.974,4.434a.956.956,0,0,0,1.59-1.062l-2.967-4.43,3.728-1.45a.916.916,0,0,0,.2-.1,1,1,0,0,0-.057-1.7Zm-2.966.844-2.294.9a2.9,2.9,0,0,0-1.055.711L749.62,490.5a.191.191,0,0,1-.27,0,.187.187,0,0,1-.056-.111l-.964-6.981a.191.191,0,0,1,.287-.2l6.086,3.555a.192.192,0,0,1-.027.344Z" transform="translate(-742.151 -476.32)" fill="#feab00"/>
        </g>
      </g>
      <g id="Layer_2-2" data-name="Layer 2-2" transform="translate(729.704 484.594)">
        <g id="Avatar">
          <path id="Path_94125" data-name="Path 94125" d="M747.6,502.751l-.49-2.32a4.583,4.583,0,0,0-2.083-2.97l-2.94-1.82a4.227,4.227,0,0,0,.823-2.087l.234-2.2a4.253,4.253,0,0,0-3.778-4.681,4.143,4.143,0,0,0-.45-.025h-.473a4.254,4.254,0,0,0-4.252,4.256,4.329,4.329,0,0,0,.024.45l.237,2.2a4.243,4.243,0,0,0,.822,2.087l-2.94,1.82a4.588,4.588,0,0,0-2.086,2.97l-.49,2.32a2.5,2.5,0,0,0,1.928,2.957,2.547,2.547,0,0,0,.515.053h12.957a2.493,2.493,0,0,0,2.443-3.012Zm-10.9-13.424a2.324,2.324,0,0,1,1.74-.764h.47a2.339,2.339,0,0,1,2.341,2.337,2.194,2.194,0,0,1-.014.255l-.23,2.194a2.343,2.343,0,0,1-4.659,0l-.234-2.194A2.3,2.3,0,0,1,736.7,489.326Zm8.91,14.292a.564.564,0,0,1-.455.218H732.2a.566.566,0,0,1-.455-.218.581.581,0,0,1-.13-.47l.49-2.32a2.715,2.715,0,0,1,1.23-1.739l3.49-2.163a4.228,4.228,0,0,0,3.708,0l3.49,2.163a2.708,2.708,0,0,1,1.219,1.735l.49,2.32a.576.576,0,0,1-.118.49Z" transform="translate(-729.704 -486.651)" fill="#feab00"/>
        </g>
      </g>
      <rect id="Rectangle_15009" data-name="Rectangle 15009" width="4.466" height="1.787" rx="0.893" transform="translate(739.141 499.04)" fill="#feab00"/>
    </g>
  </g>
</svg>
